<svg id="Layer_1" data-name="Layer 1" xmlns="http://www.w3.org/2000/svg" viewBox="0 0 638.3 322.7"><defs><style>.cls-1{fill:#c9c9c9;}.cls-2{fill:#cecece;}.cls-3{fill:#fff;}.cls-14,.cls-16,.cls-18,.cls-19,.cls-20,.cls-21,.cls-22,.cls-24,.cls-26,.cls-4{fill:none;}.cls-24,.cls-26,.cls-4,.cls-6{stroke:#1f3969;}.cls-14,.cls-16,.cls-18,.cls-19,.cls-20,.cls-21,.cls-22,.cls-24,.cls-26,.cls-4,.cls-6{stroke-linecap:round;stroke-linejoin:round;}.cls-18,.cls-19,.cls-20,.cls-21,.cls-22,.cls-4,.cls-6{stroke-width:4px;}.cls-5{fill:#ff3e3e;}.cls-17,.cls-6{fill:#1f3969;}.cls-6{opacity:0.28;}.cls-14,.cls-6{isolation:isolate;}.cls-7{fill:#50b56f;}.cls-8{fill:#5f5aff;}.cls-9{fill:#f6f9fd;}.cls-10{fill:#bfcfe2;}.cls-11{fill:#2d425e;}.cls-12{fill:#d0ddf0;}.cls-13{fill:#2aa1ff;}.cls-14,.cls-16,.cls-18{stroke:#fff;}.cls-14,.cls-16{stroke-width:2px;}.cls-14,.cls-15{opacity:0.34;}.cls-19{stroke:#7bffa0;}.cls-20{stroke:#9169ff;}.cls-21{stroke:#ffc47d;}.cls-22{stroke:#ff5757;}.cls-23{fill:#ffa364;}.cls-24{stroke-width:4px;}.cls-25{fill:#ff5252;}.cls-26{stroke-width:4px;}.cls-27{fill:#6567c3;}</style></defs><title>developer</title><path class="cls-1" d="M789.5,666.3H169.2a9,9,0,0,1-9-9h0a9,9,0,0,1,9-9H789.5a9,9,0,0,1,9,9h0A9,9,0,0,1,789.5,666.3Z" transform="translate(-160.2 -343.6)"/><path class="cls-2" d="M285.9,573.3a17.3,17.3,0,0,1,0-34.6h98v34.7h-98Z" transform="translate(-160.2 -343.6)"/><path class="cls-3" d="M389.6,579.3H285.9A23.32,23.32,0,0,1,262.6,556h0a23.32,23.32,0,0,1,23.3-23.3H389.6v46.6Z" transform="translate(-160.2 -343.6)"/><line class="cls-4" x1="119.3" y1="207" x2="223.7" y2="207"/><line class="cls-4" x1="119.3" y1="217.6" x2="223.7" y2="217.6"/><path class="cls-4" d="M285.9,573.3a17.3,17.3,0,0,1,0-34.6h98v34.7h-98Z" transform="translate(-160.2 -343.6)"/><path class="cls-5" d="M285.9,573.3a17.3,17.3,0,0,1,0-34.6h99.7l4-6H285.9A23.32,23.32,0,0,0,262.6,556h0a23.32,23.32,0,0,0,23.3,23.3H389.6l-4-6Z" transform="translate(-160.2 -343.6)"/><path class="cls-4" d="M285.9,573.3a17.3,17.3,0,0,1,0-34.6h99.7l4-6H285.9A23.32,23.32,0,0,0,262.6,556h0a23.32,23.32,0,0,0,23.3,23.3H389.6l-4-6Z" transform="translate(-160.2 -343.6)"/><rect class="cls-6" x="188.7" y="189" width="18.4" height="46.7"/><path class="cls-7" d="M378.9,617.8H189a6.81,6.81,0,0,1-6.8-6.8V586a6.81,6.81,0,0,1,6.8-6.8H378.9a6.81,6.81,0,0,1,6.8,6.8v25A6.74,6.74,0,0,1,378.9,617.8Z" transform="translate(-160.2 -343.6)"/><path class="cls-4" d="M378.9,617.8H189a6.81,6.81,0,0,1-6.8-6.8V586a6.81,6.81,0,0,1,6.8-6.8H378.9a6.81,6.81,0,0,1,6.8,6.8v25A6.74,6.74,0,0,1,378.9,617.8Z" transform="translate(-160.2 -343.6)"/><path class="cls-6" d="M378.9,579.3h-30v15A17.09,17.09,0,0,0,366,611.4h19.7V586.1A6.74,6.74,0,0,0,378.9,579.3Z" transform="translate(-160.2 -343.6)"/><path class="cls-2" d="M432.4,625.6h-220a30.93,30.93,0,0,1,2,11.4,31.31,31.31,0,0,1-2,11.4H432.3a30.93,30.93,0,0,1-2-11.4A32.63,32.63,0,0,1,432.4,625.6Z" transform="translate(-160.2 -343.6)"/><rect class="cls-8" x="46.3" y="275.9" width="231.9" height="6"/><rect class="cls-4" x="46.3" y="275.9" width="231.9" height="6"/><rect class="cls-9" x="46.3" y="304.7" width="231.9" height="6"/><rect class="cls-8" x="46.3" y="304.7" width="231.9" height="6"/><rect class="cls-4" x="46.3" y="304.7" width="231.9" height="6"/><path class="cls-10" d="M553.6,633l-3-33.7H501.2l-3,33.7c-.7,7.8-5.4,15.3-12.8,21.3v.1h81v-.1C559,648.3,554.3,640.8,553.6,633Z" transform="translate(-160.2 -343.6)"/><polygon class="cls-6" points="341 255.7 339.2 275.9 392.2 275.9 390.4 255.7 341 255.7"/><path class="cls-4" d="M553.6,633l-3-33.7H501.2l-3,33.7c-.7,7.8-5.4,15.3-12.8,21.3v.1h81v-.1C559,648.3,554.3,640.8,553.6,633Z" transform="translate(-160.2 -343.6)"/><path class="cls-3" d="M683.9,604.3h-316a12,12,0,0,1-12-12v-206a12,12,0,0,1,12-12h316a12,12,0,0,1,12,12v206A12,12,0,0,1,683.9,604.3Z" transform="translate(-160.2 -343.6)"/><path class="cls-10" d="M683.9,604.3h-316a12,12,0,0,1-12-12v-206a12,12,0,0,1,12-12h316a12,12,0,0,1,12,12v206A12,12,0,0,1,683.9,604.3Z" transform="translate(-160.2 -343.6)"/><path class="cls-4" d="M683.9,604.3h-316a12,12,0,0,1-12-12v-206a12,12,0,0,1,12-12h316a12,12,0,0,1,12,12v206A12,12,0,0,1,683.9,604.3Z" transform="translate(-160.2 -343.6)"/><rect class="cls-9" x="212.76" y="47.73" width="306" height="174.6"/><path class="cls-6" d="M383.9,374.3V512.9a8,8,0,0,0,8,8H581a8,8,0,0,0,8-8V374.3Z" transform="translate(-160.2 -343.6)"/><rect class="cls-4" x="212.76" y="47.73" width="306" height="174.6"/><line class="cls-4" x1="352.3" y1="241.4" x2="379.2" y2="241.4"/><path class="cls-11" d="M590,509.9H400.9a8,8,0,0,1-8-8V353.7a8,8,0,0,1,8-8H590a8,8,0,0,1,8,8V502A7.94,7.94,0,0,1,590,509.9Z" transform="translate(-160.2 -343.6)"/><path class="cls-4" d="M598,365.1H392.9V353.6a8,8,0,0,1,8-8H590a8,8,0,0,1,8,8Z" transform="translate(-160.2 -343.6)"/><path class="cls-12" d="M598,368.9H392.9V353.6a8,8,0,0,1,8-8H590a8,8,0,0,1,8,8Z" transform="translate(-160.2 -343.6)"/><path class="cls-4" d="M598,368.9H392.9V353.6a8,8,0,0,1,8-8H590a8,8,0,0,1,8,8Z" transform="translate(-160.2 -343.6)"/><path class="cls-4" d="M598,368.9H392.9V353.6a8,8,0,0,1,8-8H590a8,8,0,0,1,8,8Z" transform="translate(-160.2 -343.6)"/><path class="cls-4" d="M590,509.9H400.9a8,8,0,0,1-8-8V353.7a8,8,0,0,1,8-8H590a8,8,0,0,1,8,8V502A7.94,7.94,0,0,1,590,509.9Z" transform="translate(-160.2 -343.6)"/><path class="cls-6" d="M688.7,545.3h-116a8,8,0,0,1-8-8V414.4a8,8,0,0,1,8-8h116a8,8,0,0,1,8,8V537.3A8,8,0,0,1,688.7,545.3Z" transform="translate(-160.2 -343.6)"/><path class="cls-13" d="M696.7,538.3h-116a8,8,0,0,1-8-8V407.4a8,8,0,0,1,8-8h116a8,8,0,0,1,8,8V530.3A8,8,0,0,1,696.7,538.3Z" transform="translate(-160.2 -343.6)"/><path class="cls-4" d="M696.7,538.3h-116a8,8,0,0,1-8-8V407.4a8,8,0,0,1,8-8h116a8,8,0,0,1,8,8V530.3A8,8,0,0,1,696.7,538.3Z" transform="translate(-160.2 -343.6)"/><path class="cls-14" d="M679.4,437.5H597.8a5.16,5.16,0,0,1-5.2-5.2v-7.8a5.16,5.16,0,0,1,5.2-5.2h81.6a5.16,5.16,0,0,1,5.2,5.2v7.8A5.16,5.16,0,0,1,679.4,437.5Z" transform="translate(-160.2 -343.6)"/><g class="cls-15"><path class="cls-16" d="M643.6,466.8H598a5.16,5.16,0,0,1-5.2-5.2v-7.8a5.16,5.16,0,0,1,5.2-5.2h45.6a5.16,5.16,0,0,1,5.2,5.2v7.8A5.29,5.29,0,0,1,643.6,466.8Z" transform="translate(-160.2 -343.6)"/><path class="cls-16" d="M679.5,466.8H661.8a5.16,5.16,0,0,1-5.2-5.2v-7.8a5.16,5.16,0,0,1,5.2-5.2h17.7a5.16,5.16,0,0,1,5.2,5.2v7.8A5.16,5.16,0,0,1,679.5,466.8Z" transform="translate(-160.2 -343.6)"/></g><line class="cls-16" x1="432.5" y1="153.6" x2="524.4" y2="153.6"/><line class="cls-16" x1="432.5" y1="164.4" x2="524.4" y2="164.4"/><line class="cls-16" x1="432.5" y1="175.2" x2="488.5" y2="175.2"/><circle class="cls-17" cx="252.8" cy="13.7" r="4"/><circle class="cls-17" cx="266.7" cy="13.7" r="4"/><circle class="cls-17" cx="280.6" cy="13.7" r="4"/><line class="cls-18" x1="350.5" y1="43.8" x2="363.5" y2="43.8"/><line class="cls-19" x1="284.6" y1="43.8" x2="340.9" y2="43.8"/><line class="cls-20" x1="256.8" y1="43.8" x2="276.6" y2="43.8"/><line class="cls-20" x1="282.6" y1="142.3" x2="325.6" y2="142.3"/><line class="cls-19" x1="256.8" y1="142.3" x2="270.7" y2="142.3"/><line class="cls-18" x1="340.9" y1="56.1" x2="349" y2="56.1"/><line class="cls-20" x1="304.1" y1="56.1" x2="331.3" y2="56.1"/><line class="cls-21" x1="266.7" y1="56.1" x2="294.4" y2="56.1"/><line class="cls-18" x1="309.6" y1="68.4" x2="333.5" y2="68.4"/><line class="cls-22" x1="279.6" y1="68.4" x2="302.1" y2="68.4"/><line class="cls-18" x1="312.8" y1="80.7" x2="317.7" y2="80.7"/><line class="cls-20" x1="293" y1="80.7" x2="304.1" y2="80.7"/><line class="cls-19" x1="266.7" y1="80.7" x2="284.6" y2="80.7"/><line class="cls-21" x1="305.1" y1="93.1" x2="337" y2="93.1"/><line class="cls-22" x1="266.7" y1="93.1" x2="295.3" y2="93.1"/><line class="cls-20" x1="342" y1="105.4" x2="359.3" y2="105.4"/><line class="cls-22" x1="305.1" y1="105.4" x2="332.8" y2="105.4"/><line class="cls-19" x1="279.6" y1="105.4" x2="295.3" y2="105.4"/><line class="cls-18" x1="317.7" y1="117.7" x2="332.8" y2="117.7"/><line class="cls-20" x1="279.6" y1="117.7" x2="307.3" y2="117.7"/><line class="cls-18" x1="357" y1="130" x2="374.3" y2="130"/><line class="cls-21" x1="304.1" y1="130" x2="347.6" y2="130"/><line class="cls-18" x1="266.7" y1="130" x2="294.4" y2="130"/><line class="cls-4" x1="54.7" y1="288.9" x2="270.2" y2="288.9"/><line class="cls-4" x1="54.7" y1="296.9" x2="270.2" y2="296.9"/><path class="cls-4" d="M432.4,625.6h-220a30.93,30.93,0,0,1,2,11.4,31.31,31.31,0,0,1-2,11.4H432.3a30.93,30.93,0,0,1-2-11.4A32.63,32.63,0,0,1,432.4,625.6Z" transform="translate(-160.2 -343.6)"/><rect class="cls-23" x="722.82" y="544.39" width="9.8" height="72.6" transform="translate(-222.94 -254.79) rotate(-6.7)"/><rect class="cls-13" x="719.03" y="544.69" width="9.8" height="7.4" transform="translate(-219.2 -255.45) rotate(-6.7)"/><rect class="cls-24" x="719.03" y="544.69" width="9.8" height="7.4" transform="translate(-219.2 -255.45) rotate(-6.7)"/><rect class="cls-24" x="722.82" y="544.39" width="9.8" height="72.6" transform="translate(-222.94 -254.79) rotate(-6.7)"/><rect class="cls-25" x="709.95" y="589.5" width="72.6" height="9.8" transform="translate(-85.54 928.41) rotate(-83.79)"/><rect class="cls-26" x="709.95" y="589.5" width="72.6" height="9.8" transform="translate(-85.54 928.41) rotate(-83.79)"/><rect class="cls-11" x="746.14" y="557.11" width="7.4" height="9.8" transform="translate(-50.13 903.1) rotate(-83.79)"/><rect class="cls-26" x="746.14" y="557.11" width="7.4" height="9.8" transform="translate(-50.13 903.1) rotate(-83.79)"/><polygon class="cls-27" points="600.9 311 561.6 311 555.2 250.8 607.3 250.8 600.9 311"/><polygon class="cls-27" points="555.2 250.8 555.3 251.9 595 251.9 588.7 311 600.9 311 607.3 250.8 555.2 250.8"/><polygon class="cls-4" points="600.9 311 561.6 311 555.2 250.8 607.3 250.8 600.9 311"/></svg>